<svg width="96" height="21" viewBox="0 0 96 21" fill="none" xmlns="http://www.w3.org/2000/svg">
<path d="M8.848 20.392C7.26133 20.392 5.72133 20.196 4.228 19.804C2.73467 19.412 1.52133 18.8893 0.588 18.236L2.408 14.148C3.28533 14.7267 4.30267 15.1933 5.46 15.548C6.61733 15.9027 7.756 16.08 8.876 16.08C11.004 16.08 12.068 15.548 12.068 14.484C12.068 13.924 11.76 13.5133 11.144 13.252C10.5467 12.972 9.576 12.6827 8.232 12.384C6.75733 12.0667 5.52533 11.7307 4.536 11.376C3.54667 11.0027 2.69733 10.4147 1.988 9.612C1.27867 8.80933 0.924 7.72667 0.924 6.364C0.924 5.16933 1.25067 4.096 1.904 3.144C2.55733 2.17333 3.528 1.408 4.816 0.848C6.12267 0.287999 7.71867 0.0079987 9.604 0.0079987C10.892 0.0079987 12.1613 0.157332 13.412 0.456C14.6627 0.735999 15.764 1.156 16.716 1.716L15.008 5.832C13.1413 4.824 11.3307 4.32 9.576 4.32C8.47467 4.32 7.672 4.488 7.168 4.824C6.664 5.14133 6.412 5.56133 6.412 6.084C6.412 6.60667 6.71067 6.99867 7.308 7.26C7.90533 7.52133 8.86667 7.792 10.192 8.072C11.6853 8.38933 12.9173 8.73467 13.888 9.108C14.8773 9.46267 15.7267 10.0413 16.436 10.844C17.164 11.628 17.528 12.7013 17.528 14.064C17.528 15.24 17.2013 16.304 16.548 17.256C15.8947 18.208 14.9147 18.9733 13.608 19.552C12.3013 20.112 10.7147 20.392 8.848 20.392ZM20.0889 0.399999H25.6329V20H20.0889V0.399999ZM47.2732 20L47.2172 9.612L42.1772 18.068H39.7132L34.7012 9.892V20H29.5772V0.399999H34.1412L41.0292 11.712L47.7492 0.399999H52.3132L52.3692 20H47.2732ZM69.424 16.192H61.136L59.596 20H53.94L62.592 0.399999H68.052L76.732 20H70.964L69.424 16.192ZM67.8 12.104L65.28 5.832L62.76 12.104H67.8ZM89.6133 20L85.5533 13.924L81.5493 20H75.2213L82.3613 10.088L75.5293 0.399999H81.7733L85.6933 6.056L89.5573 0.399999H95.5493L88.7173 9.864L95.9973 20H89.6133Z" fill="#6076C2"/>
</svg>
